<?xml version="1.0" encoding="utf-8"?>
<svg viewBox="0 0 300.03 300" width="300.03" height="300" xmlns="http://www.w3.org/2000/svg">
    <rect class="st0" width="300" height="300" style="fill: rgb(47, 153, 164);" transform="matrix(1, 0, 0, 1, -3.552713678800501e-15, 0)"/>
    <g id="Icons" class="st1" style="display: none; transform-origin: 5.73655px -199.45px;" transform="matrix(0.097595013678, 0, 0, 0.998170018196, -5.736547845999, 199.085021603483)">
        <g id="Rounded" class="st2">
            <g id="Editor">
                <polygon id="Path" class="st3" points="5.8,5 60.5,5 60.5,59.7 5.8,59.7" style="fill: none;"/>
                <path class="st4" d="M17.2,21h31.9c1.3,0,2.3-1,2.3-2.3c0-1.3-1-2.3-2.3-2.3H17.2c-1.3,0-2.3,1-2.3,2.3C14.9,20,15.9,21,17.2,21z M44.2,30.1h-27c-1.3,0-2.3,1-2.3,2.3c0,1.3,1,2.3,2.3,2.3h27.6c2.3-0.1,4.3,1.5,4.8,3.8c0.4,2.5-1.2,4.8-3.7,5.3 c-0.2,0-0.5,0.1-0.8,0.1H40V42c0-0.6-0.5-1.1-1.1-1.1c-0.3,0-0.6,0.1-0.8,0.3L34,45.3c-0.4,0.4-0.5,1.2,0,1.6c0,0,0,0,0,0L38,51 c0.4,0.4,1.2,0.5,1.6,0c0.2-0.2,0.3-0.5,0.3-0.8v-1.9h4.5c5,0,9.1-4.1,9.1-9.1c0-0.3,0-0.6,0-0.9C53,33.6,48.9,30,44.2,30.1 L44.2,30.1z M26.3,43.8h-9.1c-1.3-0.1-2.3,0.9-2.4,2.1c-0.1,1.3,0.9,2.3,2.1,2.4c0.1,0,0.2,0,0.3,0h9.1c1.3,0.1,2.3-0.9,2.4-2.1 c0.1-1.3-0.9-2.3-2.1-2.4C26.5,43.8,26.4,43.8,26.3,43.8z" style="clip-rule: evenodd; fill: rgb(255, 255, 255); fill-rule: evenodd;"/>
            </g>
        </g>
    </g>
    <path class="st3" d="M 295.912 207.37 L 300.03 207.37 L 300.03 249.493 L 295.912 249.493 L 295.912 207.37 Z" style="fill: none;" transform="matrix(1, 0, 0, 1, -3.552713678800501e-15, 0)"/>
    <path class="st3" d="M 296.535 276.044 L 298.878 276.044 L 298.878 300 L 296.535 300 L 296.535 276.044 Z" style="fill: none;" transform="matrix(1, 0, 0, 1, -3.552713678800501e-15, 0)"/>
    <path class="st5" d="M 65 235 L 235 150.23 L 65 65 L 65 130.983 L 186.598 149.77 L 65 168.557 L 65 235 Z" style="fill: rgb(255, 255, 255);" transform="matrix(1, 0, 0, 1, -3.552713678800501e-15, 0)"/>
</svg>